<svg width="32" height="33" viewBox="0 0 32 33" fill="none" xmlns="http://www.w3.org/2000/svg">
<path d="M11.3333 19.5C11.3333 22.06 13.44 24.1667 16 24.1667C18.56 24.1667 20.6666 22.06 20.6666 19.5" stroke="#232627" stroke-width="1.5" stroke-miterlimit="10" stroke-linecap="round" stroke-linejoin="round"/>
<path d="M11.7466 3.16666L6.91998 8.00666" stroke="#232627" stroke-width="1.5" stroke-miterlimit="10" stroke-linecap="round" stroke-linejoin="round"/>
<path d="M20.2534 3.16666L25.08 8.00666" stroke="#232627" stroke-width="1.5" stroke-miterlimit="10" stroke-linecap="round" stroke-linejoin="round"/>
<path d="M2.66669 10.9667C2.66669 8.5 3.98669 8.3 5.62669 8.3H26.3734C28.0134 8.3 29.3334 8.5 29.3334 10.9667C29.3334 13.8333 28.0134 13.6333 26.3734 13.6333H5.62669C3.98669 13.6333 2.66669 13.8333 2.66669 10.9667Z" stroke="#232627" stroke-width="1.5"/>
<path d="M4.66669 13.8333L6.54669 25.3533C6.97335 27.94 8.00002 29.8333 11.8134 29.8333H19.8534C24 29.8333 24.6134 28.02 25.0934 25.5133L27.3334 13.8333" stroke="#232627" stroke-width="1.5" stroke-linecap="round"/>
</svg>
