<svg width="32" height="33" viewBox="0 0 32 33" fill="none" xmlns="http://www.w3.org/2000/svg">
<path d="M4.22656 10.4199L15.9999 17.2332L27.6932 10.4599" stroke="#232627" stroke-width="1.5" stroke-linecap="round" stroke-linejoin="round"/>
<path d="M16 29.3132V17.2198" stroke="#232627" stroke-width="1.5" stroke-linecap="round" stroke-linejoin="round"/>
<path d="M13.2398 3.80663L6.11983 7.76667C4.5065 8.66 3.18652 10.9 3.18652 12.74V20.2733C3.18652 22.1133 4.5065 24.3533 6.11983 25.2466L13.2398 29.2067C14.7598 30.0467 17.2532 30.0467 18.7732 29.2067L25.8932 25.2466C27.5065 24.3533 28.8265 22.1133 28.8265 20.2733V12.74C28.8265 10.9 27.5065 8.66 25.8932 7.76667L18.7732 3.80663C17.2398 2.95329 14.7598 2.95329 13.2398 3.80663Z" stroke="#222222" stroke-width="1.5" stroke-linecap="round" stroke-linejoin="round"/>
<path d="M22.6665 18.1534V13.2734L10.0132 5.96667" stroke="#222222" stroke-width="1.5" stroke-linecap="round" stroke-linejoin="round"/>
</svg>
