<svg width="174" height="64" viewBox="0 0 174 64" fill="none" xmlns="http://www.w3.org/2000/svg">
<circle cx="23.7018" cy="19.6491" r="8.42105" fill="#00BC08"/>
<circle cx="43.9123" cy="42.6667" r="7.29825" fill="#00BC08"/>
<circle cx="21.4562" cy="42.6667" r="10.6667" fill="#00BC08"/>
<path d="M22.8596 26.386L22.2982 33.1228" stroke="#00BC08" stroke-width="2.80702"/>
<path d="M37.1754 42.6667H29.0351" stroke="#00BC08" stroke-width="2.80702"/>
<path d="M80.0909 17.6875C79.9716 17.2727 79.804 16.9062 79.5881 16.5881C79.3722 16.2642 79.108 15.9915 78.7955 15.7699C78.4886 15.5426 78.1364 15.3693 77.7386 15.25C77.3466 15.1307 76.9119 15.071 76.4347 15.071C75.5426 15.071 74.7585 15.2926 74.0824 15.7358C73.4119 16.179 72.8892 16.8239 72.5142 17.6705C72.1392 18.5114 71.9517 19.5398 71.9517 20.7557C71.9517 21.9716 72.1364 23.0057 72.5057 23.858C72.875 24.7102 73.3977 25.3608 74.0739 25.8097C74.75 26.2528 75.5483 26.4744 76.4688 26.4744C77.304 26.4744 78.017 26.3267 78.608 26.0312C79.2045 25.7301 79.6591 25.3068 79.9716 24.7614C80.2898 24.2159 80.4489 23.571 80.4489 22.8267L81.1989 22.9375H76.6989V20.1591H84.0028V22.358C84.0028 23.892 83.679 25.2102 83.0312 26.3125C82.3835 27.4091 81.4915 28.2557 80.3551 28.8523C79.2188 29.4432 77.9176 29.7386 76.4517 29.7386C74.8153 29.7386 73.3778 29.3778 72.1392 28.6562C70.9006 27.929 69.9347 26.8977 69.2415 25.5625C68.554 24.2216 68.2102 22.6307 68.2102 20.7898C68.2102 19.375 68.4148 18.1136 68.8239 17.0057C69.2386 15.892 69.8182 14.9489 70.5625 14.1761C71.3068 13.4034 72.1733 12.8153 73.1619 12.4119C74.1506 12.0085 75.2216 11.8068 76.375 11.8068C77.3636 11.8068 78.2841 11.9517 79.1364 12.2415C79.9886 12.5256 80.7443 12.929 81.4034 13.4517C82.0682 13.9744 82.6108 14.5966 83.0312 15.3182C83.4517 16.0341 83.7216 16.8239 83.8409 17.6875H80.0909ZM86.7067 29.5V16.4091H90.2266V18.6932H90.3629C90.6016 17.8807 91.0021 17.267 91.5646 16.8523C92.1271 16.4318 92.7749 16.2216 93.5078 16.2216C93.6896 16.2216 93.8857 16.233 94.0959 16.2557C94.3061 16.2784 94.4908 16.3097 94.6499 16.3494V19.571C94.4794 19.5199 94.2436 19.4744 93.9425 19.4347C93.6413 19.3949 93.3658 19.375 93.1158 19.375C92.5817 19.375 92.1044 19.4915 91.6839 19.7244C91.2692 19.9517 90.9396 20.2699 90.6953 20.679C90.4567 21.0881 90.3374 21.5597 90.3374 22.0938V29.5H86.7067ZM101.832 29.7557C100.509 29.7557 99.3636 29.4744 98.3977 28.9119C97.4375 28.3437 96.696 27.554 96.1733 26.5426C95.6506 25.5256 95.3892 24.3466 95.3892 23.0057C95.3892 21.6534 95.6506 20.4716 96.1733 19.4602C96.696 18.4432 97.4375 17.6534 98.3977 17.0909C99.3636 16.5227 100.509 16.2386 101.832 16.2386C103.156 16.2386 104.298 16.5227 105.259 17.0909C106.224 17.6534 106.969 18.4432 107.491 19.4602C108.014 20.4716 108.276 21.6534 108.276 23.0057C108.276 24.3466 108.014 25.5256 107.491 26.5426C106.969 27.554 106.224 28.3437 105.259 28.9119C104.298 29.4744 103.156 29.7557 101.832 29.7557ZM101.849 26.9432C102.452 26.9432 102.955 26.7727 103.358 26.4318C103.761 26.0852 104.065 25.6136 104.27 25.017C104.48 24.4205 104.585 23.7415 104.585 22.9801C104.585 22.2188 104.48 21.5398 104.27 20.9432C104.065 20.3466 103.761 19.875 103.358 19.5284C102.955 19.1818 102.452 19.0085 101.849 19.0085C101.241 19.0085 100.73 19.1818 100.315 19.5284C99.9063 19.875 99.5966 20.3466 99.3864 20.9432C99.1818 21.5398 99.0795 22.2188 99.0795 22.9801C99.0795 23.7415 99.1818 24.4205 99.3864 25.017C99.5966 25.6136 99.9063 26.0852 100.315 26.4318C100.73 26.7727 101.241 26.9432 101.849 26.9432ZM110.705 12.0455H115.256L120.062 23.7727H120.267L125.074 12.0455H129.625V29.5H126.045V18.1392H125.901L121.384 29.4148H118.946L114.429 18.0966H114.284V29.5H110.705V12.0455ZM138.563 29.7557C137.217 29.7557 136.058 29.483 135.086 28.9375C134.12 28.3864 133.376 27.608 132.853 26.6023C132.33 25.5909 132.069 24.3949 132.069 23.0142C132.069 21.6676 132.33 20.4858 132.853 19.4688C133.376 18.4517 134.112 17.6591 135.06 17.0909C136.015 16.5227 137.134 16.2386 138.418 16.2386C139.282 16.2386 140.086 16.3778 140.83 16.6562C141.58 16.929 142.234 17.3409 142.79 17.892C143.353 18.4432 143.79 19.1364 144.103 19.9716C144.415 20.8011 144.572 21.7727 144.572 22.8864V23.8835H133.518V21.6335H141.154C141.154 21.1108 141.04 20.6477 140.813 20.2443C140.586 19.8409 140.271 19.5256 139.867 19.2983C139.469 19.0653 139.006 18.9489 138.478 18.9489C137.927 18.9489 137.438 19.0767 137.012 19.3324C136.592 19.5824 136.262 19.9205 136.023 20.3466C135.785 20.767 135.663 21.2358 135.657 21.7528V23.892C135.657 24.5398 135.776 25.0994 136.015 25.571C136.259 26.0426 136.603 26.4062 137.046 26.6619C137.489 26.9176 138.015 27.0455 138.623 27.0455C139.026 27.0455 139.396 26.9886 139.731 26.875C140.066 26.7614 140.353 26.5909 140.592 26.3636C140.83 26.1364 141.012 25.858 141.137 25.5284L144.495 25.75C144.325 26.5568 143.975 27.2614 143.447 27.8636C142.924 28.4602 142.248 28.9261 141.418 29.2614C140.594 29.5909 139.643 29.7557 138.563 29.7557ZM151.765 29.7131C150.771 29.7131 149.87 29.4574 149.063 28.946C148.262 28.429 147.626 27.6705 147.154 26.6705C146.688 25.6648 146.455 24.4318 146.455 22.9716C146.455 21.4716 146.697 20.2244 147.18 19.2301C147.663 18.2301 148.305 17.483 149.106 16.9886C149.913 16.4886 150.796 16.2386 151.756 16.2386C152.489 16.2386 153.1 16.3636 153.589 16.6136C154.083 16.858 154.481 17.1648 154.782 17.5341C155.089 17.8977 155.322 18.2557 155.481 18.608H155.592V12.0455H159.214V29.5H155.634V27.4034H155.481C155.31 27.767 155.069 28.1278 154.756 28.4858C154.45 28.8381 154.049 29.1307 153.555 29.3636C153.066 29.5966 152.469 29.7131 151.765 29.7131ZM152.915 26.8239C153.501 26.8239 153.995 26.6648 154.398 26.3466C154.808 26.0227 155.12 25.571 155.336 24.9915C155.558 24.4119 155.668 23.733 155.668 22.9545C155.668 22.1761 155.56 21.5 155.344 20.9261C155.129 20.3523 154.816 19.9091 154.407 19.5966C153.998 19.2841 153.501 19.1278 152.915 19.1278C152.319 19.1278 151.816 19.2898 151.407 19.6136C150.998 19.9375 150.688 20.3864 150.478 20.9602C150.268 21.5341 150.163 22.1989 150.163 22.9545C150.163 23.7159 150.268 24.3892 150.478 24.9744C150.694 25.554 151.004 26.0085 151.407 26.3381C151.816 26.6619 152.319 26.8239 152.915 26.8239Z" fill="#454545"/>
<path d="M67.6392 37.6818H68.7045L70.5568 42.2045H70.625L72.4773 37.6818H73.5426V43.5H72.7074V39.2898H72.6534L70.9375 43.4915H70.2443L68.5284 39.2869H68.4744V43.5H67.6392V37.6818ZM74.8189 43.5V37.6818H78.4666V38.4375H75.6967V40.2102H78.2763V40.9631H75.6967V42.7443H78.5007V43.5H74.8189ZM76.2905 37.0994L76.9553 35.7898H77.8501L76.9695 37.0994H76.2905ZM81.5227 43.5H79.6392V37.6818H81.5824C82.1525 37.6818 82.642 37.7983 83.0511 38.0312C83.4602 38.2623 83.7737 38.5947 83.9915 39.0284C84.2112 39.4602 84.321 39.9782 84.321 40.5824C84.321 41.1884 84.2102 41.7093 83.9886 42.1449C83.7689 42.5805 83.4508 42.9157 83.0341 43.1506C82.6174 43.3835 82.1136 43.5 81.5227 43.5ZM80.517 42.733H81.4744C81.9176 42.733 82.286 42.6496 82.5795 42.483C82.8731 42.3144 83.0928 42.071 83.2386 41.7528C83.3845 41.4328 83.4574 41.0426 83.4574 40.5824C83.4574 40.1259 83.3845 39.7386 83.2386 39.4205C83.0947 39.1023 82.8797 38.8608 82.5938 38.696C82.3078 38.5312 81.9527 38.4489 81.5284 38.4489H80.517V42.733ZM86.2905 37.6818V43.5H85.4126V37.6818H86.2905ZM92.4013 39.5739H91.5149C91.4808 39.3845 91.4174 39.2178 91.3246 39.0739C91.2318 38.9299 91.1181 38.8078 90.9837 38.7074C90.8492 38.607 90.6986 38.5312 90.532 38.4801C90.3672 38.429 90.192 38.4034 90.0064 38.4034C89.6712 38.4034 89.371 38.4877 89.1058 38.6562C88.8426 38.8248 88.6342 39.072 88.4808 39.3977C88.3293 39.7235 88.2536 40.1212 88.2536 40.5909C88.2536 41.0644 88.3293 41.464 88.4808 41.7898C88.6342 42.1155 88.8435 42.3617 89.1087 42.5284C89.3738 42.6951 89.6721 42.7784 90.0036 42.7784C90.1873 42.7784 90.3615 42.7538 90.5263 42.7045C90.6929 42.6534 90.8435 42.5786 90.978 42.4801C91.1125 42.3816 91.2261 42.2614 91.3189 42.1193C91.4136 41.9754 91.4789 41.8106 91.5149 41.625L92.4013 41.6278C92.3539 41.9138 92.2621 42.1771 92.1257 42.4176C91.9912 42.6562 91.8179 42.8627 91.6058 43.0369C91.3956 43.2093 91.1551 43.3428 90.8842 43.4375C90.6134 43.5322 90.3179 43.5795 89.9979 43.5795C89.4941 43.5795 89.0452 43.4602 88.6513 43.2216C88.2573 42.9811 87.9467 42.6373 87.7195 42.1903C87.4941 41.7434 87.3814 41.2102 87.3814 40.5909C87.3814 39.9697 87.495 39.4366 87.7223 38.9915C87.9496 38.5445 88.2602 38.2017 88.6541 37.9631C89.0481 37.7225 89.496 37.6023 89.9979 37.6023C90.3066 37.6023 90.5945 37.6468 90.8615 37.7358C91.1304 37.8229 91.3719 37.9517 91.5859 38.1222C91.8 38.2907 91.977 38.4972 92.1172 38.7415C92.2573 38.9839 92.352 39.2614 92.4013 39.5739ZM93.9041 43.5H92.9723L95.0661 37.6818H96.0803L98.174 43.5H97.2422L95.5973 38.7386H95.5518L93.9041 43.5ZM94.0604 41.2216H97.0831V41.9602H94.0604V41.2216ZM99.0142 37.6818H100.08L101.932 42.2045H102L103.852 37.6818H104.918V43.5H104.082V39.2898H104.028L102.312 43.4915H101.619L99.9034 39.2869H99.8494V43.5H99.0142V37.6818ZM106.194 43.5V37.6818H109.842V38.4375H107.072V40.2102H109.651V40.9631H107.072V42.7443H109.876V43.5H106.194ZM115.71 37.6818V43.5H114.903L111.946 39.233H111.892V43.5H111.014V37.6818H111.827L114.787 41.9545H114.841V37.6818H115.71ZM116.704 38.4375V37.6818H121.207V38.4375H119.391V43.5H118.516V38.4375H116.704ZM125.375 39.2102C125.345 38.9413 125.22 38.733 125 38.5852C124.78 38.4356 124.504 38.3608 124.17 38.3608C123.932 38.3608 123.725 38.3987 123.551 38.4744C123.377 38.5483 123.241 38.6506 123.145 38.7812C123.05 38.91 123.003 39.0568 123.003 39.2216C123.003 39.3598 123.035 39.4792 123.099 39.5795C123.166 39.6799 123.252 39.7642 123.358 39.8324C123.466 39.8987 123.581 39.9545 123.705 40C123.828 40.0436 123.946 40.0795 124.06 40.108L124.628 40.2557C124.813 40.3011 125.004 40.3627 125.199 40.4403C125.394 40.518 125.575 40.6203 125.741 40.7472C125.908 40.8741 126.043 41.0312 126.145 41.2188C126.249 41.4062 126.301 41.6307 126.301 41.892C126.301 42.2216 126.216 42.5142 126.045 42.7699C125.877 43.0256 125.632 43.2273 125.31 43.375C124.99 43.5227 124.602 43.5966 124.148 43.5966C123.712 43.5966 123.335 43.5275 123.017 43.3892C122.699 43.2509 122.45 43.0549 122.27 42.8011C122.09 42.5455 121.991 42.2424 121.972 41.892H122.852C122.869 42.1023 122.938 42.2775 123.057 42.4176C123.178 42.5559 123.332 42.6591 123.52 42.7273C123.709 42.7936 123.917 42.8267 124.142 42.8267C124.39 42.8267 124.611 42.7879 124.804 42.7102C124.999 42.6307 125.152 42.5208 125.264 42.3807C125.376 42.2386 125.432 42.0729 125.432 41.8835C125.432 41.7112 125.383 41.5701 125.284 41.4602C125.188 41.3504 125.056 41.2595 124.889 41.1875C124.724 41.1155 124.538 41.0521 124.33 40.9972L123.642 40.8097C123.176 40.6828 122.807 40.4962 122.534 40.25C122.263 40.0038 122.128 39.678 122.128 39.2727C122.128 38.9375 122.219 38.6449 122.401 38.3949C122.582 38.1449 122.829 37.9508 123.139 37.8125C123.45 37.6723 123.8 37.6023 124.19 37.6023C124.584 37.6023 124.932 37.6714 125.233 37.8097C125.536 37.9479 125.775 38.1383 125.949 38.3807C126.123 38.6212 126.214 38.8977 126.222 39.2102H125.375ZM129.467 43.5V37.6818H131.541C131.994 37.6818 132.369 37.7642 132.666 37.929C132.964 38.0937 133.186 38.3191 133.334 38.6051C133.482 38.8892 133.555 39.2093 133.555 39.5653C133.555 39.9233 133.481 40.2453 133.331 40.5312C133.183 40.8153 132.96 41.0407 132.661 41.2074C132.363 41.3722 131.989 41.4545 131.538 41.4545H130.112V40.7102H131.459C131.745 40.7102 131.977 40.661 132.155 40.5625C132.333 40.4621 132.464 40.3258 132.547 40.1534C132.63 39.9811 132.672 39.785 132.672 39.5653C132.672 39.3456 132.63 39.1506 132.547 38.9801C132.464 38.8097 132.332 38.6761 132.152 38.5795C131.974 38.483 131.739 38.4347 131.447 38.4347H130.345V43.5H129.467ZM139.638 40.5909C139.638 41.2121 139.525 41.7462 139.298 42.1932C139.07 42.6383 138.759 42.9811 138.363 43.2216C137.969 43.4602 137.521 43.5795 137.019 43.5795C136.515 43.5795 136.066 43.4602 135.67 43.2216C135.276 42.9811 134.965 42.6373 134.738 42.1903C134.511 41.7434 134.397 41.2102 134.397 40.5909C134.397 39.9697 134.511 39.4366 134.738 38.9915C134.965 38.5445 135.276 38.2017 135.67 37.9631C136.066 37.7225 136.515 37.6023 137.019 37.6023C137.521 37.6023 137.969 37.7225 138.363 37.9631C138.759 38.2017 139.07 38.5445 139.298 38.9915C139.525 39.4366 139.638 39.9697 139.638 40.5909ZM138.769 40.5909C138.769 40.1174 138.692 39.7187 138.539 39.3949C138.388 39.0691 138.179 38.8229 137.914 38.6562C137.651 38.4877 137.353 38.4034 137.019 38.4034C136.684 38.4034 136.385 38.4877 136.121 38.6562C135.858 38.8229 135.65 39.0691 135.496 39.3949C135.345 39.7187 135.269 40.1174 135.269 40.5909C135.269 41.0644 135.345 41.464 135.496 41.7898C135.65 42.1136 135.858 42.3598 136.121 42.5284C136.385 42.6951 136.684 42.7784 137.019 42.7784C137.353 42.7784 137.651 42.6951 137.914 42.5284C138.179 42.3598 138.388 42.1136 138.539 41.7898C138.692 41.464 138.769 41.0644 138.769 40.5909ZM144.474 37.6818H145.355V41.5085C145.355 41.9157 145.259 42.2765 145.068 42.5909C144.877 42.9034 144.608 43.1496 144.261 43.3295C143.915 43.5076 143.509 43.5966 143.043 43.5966C142.579 43.5966 142.173 43.5076 141.827 43.3295C141.48 43.1496 141.211 42.9034 141.02 42.5909C140.829 42.2765 140.733 41.9157 140.733 41.5085V37.6818H141.611V41.4375C141.611 41.7008 141.669 41.9347 141.784 42.1392C141.902 42.3438 142.067 42.5047 142.281 42.6222C142.495 42.7377 142.749 42.7955 143.043 42.7955C143.338 42.7955 143.593 42.7377 143.807 42.6222C144.023 42.5047 144.188 42.3438 144.301 42.1392C144.417 41.9347 144.474 41.7008 144.474 41.4375V37.6818ZM146.631 43.5V37.6818H148.705C149.156 37.6818 149.53 37.7595 149.827 37.9148C150.127 38.0701 150.35 38.285 150.498 38.5597C150.646 38.8324 150.719 39.1477 150.719 39.5057C150.719 39.8617 150.645 40.1752 150.495 40.446C150.347 40.715 150.124 40.9242 149.825 41.0739C149.527 41.2235 149.153 41.2983 148.702 41.2983H147.131V40.5426H148.623C148.907 40.5426 149.138 40.5019 149.316 40.4205C149.496 40.339 149.628 40.2206 149.711 40.0653C149.794 39.91 149.836 39.7235 149.836 39.5057C149.836 39.286 149.793 39.0956 149.708 38.9347C149.625 38.7737 149.493 38.6506 149.313 38.5653C149.135 38.4782 148.901 38.4347 148.612 38.4347H147.509V43.5H146.631ZM149.504 40.875L150.941 43.5H149.941L148.532 40.875H149.504ZM67.6392 54.5V48.6818H71.2869V49.4375H68.517V51.2102H71.0966V51.9631H68.517V53.7443H71.321V54.5H67.6392ZM69.1108 48.0994L69.7756 46.7898H70.6705L69.7898 48.0994H69.1108ZM72.1726 49.4375V48.6818H76.6754V49.4375H74.8601V54.5H73.9851V49.4375H72.1726ZM77.4744 54.5H76.5426L78.6364 48.6818H79.6506L81.7443 54.5H80.8125L79.1676 49.7386H79.1222L77.4744 54.5ZM77.6307 52.2216H80.6534V52.9602H77.6307V52.2216ZM82.5845 54.5V48.6818H84.7152C85.1281 48.6818 85.4699 48.75 85.7408 48.8864C86.0116 49.0208 86.2143 49.2036 86.3487 49.4347C86.4832 49.6638 86.5504 49.9223 86.5504 50.2102C86.5504 50.4527 86.5059 50.6572 86.4169 50.8239C86.3279 50.9886 86.2086 51.1212 86.0589 51.2216C85.9112 51.3201 85.7483 51.392 85.5703 51.4375V51.4943C85.7635 51.5038 85.9519 51.5663 86.1357 51.6818C86.3213 51.7955 86.4747 51.9574 86.5959 52.1676C86.7171 52.3778 86.7777 52.6335 86.7777 52.9347C86.7777 53.232 86.7076 53.4991 86.5675 53.7358C86.4292 53.9706 86.2152 54.1572 85.9254 54.2955C85.6357 54.4318 85.2654 54.5 84.8146 54.5H82.5845ZM83.4624 53.7472H84.7294C85.1499 53.7472 85.451 53.6657 85.6328 53.5028C85.8146 53.34 85.9055 53.1364 85.9055 52.892C85.9055 52.7083 85.8591 52.5398 85.7663 52.3864C85.6735 52.233 85.541 52.1108 85.3686 52.0199C85.1982 51.929 84.9955 51.8835 84.7607 51.8835H83.4624V53.7472ZM83.4624 51.1989H84.6385C84.8355 51.1989 85.0125 51.161 85.1697 51.0852C85.3288 51.0095 85.4548 50.9034 85.5476 50.767C85.6423 50.6288 85.6896 50.4659 85.6896 50.2784C85.6896 50.0379 85.6054 49.8362 85.4368 49.6733C85.2682 49.5104 85.0097 49.429 84.6612 49.429H83.4624V51.1989ZM87.8189 54.5V48.6818H88.6967V53.7443H91.3331V54.5H87.8189ZM93.2124 48.6818V54.5H92.3345V48.6818H93.2124ZM97.6641 50.2102C97.6338 49.9413 97.5088 49.733 97.2891 49.5852C97.0694 49.4356 96.7929 49.3608 96.4595 49.3608C96.2209 49.3608 96.0144 49.3987 95.8402 49.4744C95.666 49.5483 95.5305 49.6506 95.4339 49.7812C95.3393 49.91 95.2919 50.0568 95.2919 50.2216C95.2919 50.3598 95.3241 50.4792 95.3885 50.5795C95.4548 50.6799 95.541 50.7642 95.647 50.8324C95.755 50.8987 95.8705 50.9545 95.9936 51C96.1167 51.0436 96.2351 51.0795 96.3487 51.108L96.9169 51.2557C97.1025 51.3011 97.2929 51.3627 97.4879 51.4403C97.683 51.518 97.8639 51.6203 98.0305 51.7472C98.1972 51.8741 98.3317 52.0312 98.4339 52.2188C98.5381 52.4062 98.5902 52.6307 98.5902 52.892C98.5902 53.2216 98.505 53.5142 98.3345 53.7699C98.166 54.0256 97.9207 54.2273 97.5987 54.375C97.2786 54.5227 96.8913 54.5966 96.4368 54.5966C96.0012 54.5966 95.6243 54.5275 95.3061 54.3892C94.9879 54.2509 94.7389 54.0549 94.5589 53.8011C94.379 53.5455 94.2796 53.2424 94.2607 52.892H95.1413C95.1584 53.1023 95.2266 53.2775 95.3459 53.4176C95.4671 53.5559 95.6214 53.6591 95.8089 53.7273C95.9983 53.7936 96.2057 53.8267 96.4311 53.8267C96.6792 53.8267 96.8999 53.7879 97.093 53.7102C97.2881 53.6307 97.4415 53.5208 97.5533 53.3807C97.665 53.2386 97.7209 53.0729 97.7209 52.8835C97.7209 52.7112 97.6716 52.5701 97.5732 52.4602C97.4766 52.3504 97.3449 52.2595 97.1783 52.1875C97.0135 52.1155 96.8269 52.0521 96.6186 51.9972L95.9311 51.8097C95.4652 51.6828 95.0959 51.4962 94.8232 51.25C94.5523 51.0038 94.4169 50.678 94.4169 50.2727C94.4169 49.9375 94.5078 49.6449 94.6896 49.3949C94.8714 49.1449 95.1177 48.9508 95.4283 48.8125C95.7389 48.6723 96.0893 48.6023 96.4794 48.6023C96.8733 48.6023 97.2209 48.6714 97.522 48.8097C97.825 48.9479 98.0637 49.1383 98.2379 49.3807C98.4122 49.6212 98.5031 49.8977 98.5107 50.2102H97.6641ZM102.812 50.2102C102.782 49.9413 102.657 49.733 102.438 49.5852C102.218 49.4356 101.941 49.3608 101.608 49.3608C101.369 49.3608 101.163 49.3987 100.989 49.4744C100.814 49.5483 100.679 49.6506 100.582 49.7812C100.488 49.91 100.44 50.0568 100.44 50.2216C100.44 50.3598 100.473 50.4792 100.537 50.5795C100.603 50.6799 100.689 50.7642 100.795 50.8324C100.903 50.8987 101.019 50.9545 101.142 51C101.265 51.0436 101.384 51.0795 101.497 51.108L102.065 51.2557C102.251 51.3011 102.441 51.3627 102.636 51.4403C102.831 51.518 103.012 51.6203 103.179 51.7472C103.346 51.8741 103.48 52.0312 103.582 52.2188C103.687 52.4062 103.739 52.6307 103.739 52.892C103.739 53.2216 103.653 53.5142 103.483 53.7699C103.314 54.0256 103.069 54.2273 102.747 54.375C102.427 54.5227 102.04 54.5966 101.585 54.5966C101.15 54.5966 100.773 54.5275 100.455 54.3892C100.136 54.2509 99.8873 54.0549 99.7074 53.8011C99.5275 53.5455 99.428 53.2424 99.4091 52.892H100.29C100.307 53.1023 100.375 53.2775 100.494 53.4176C100.616 53.5559 100.77 53.6591 100.957 53.7273C101.147 53.7936 101.354 53.8267 101.58 53.8267C101.828 53.8267 102.048 53.7879 102.241 53.7102C102.437 53.6307 102.59 53.5208 102.702 53.3807C102.813 53.2386 102.869 53.0729 102.869 52.8835C102.869 52.7112 102.82 52.5701 102.722 52.4602C102.625 52.3504 102.493 52.2595 102.327 52.1875C102.162 52.1155 101.975 52.0521 101.767 51.9972L101.08 51.8097C100.614 51.6828 100.244 51.4962 99.9716 51.25C99.7008 51.0038 99.5653 50.678 99.5653 50.2727C99.5653 49.9375 99.6563 49.6449 99.8381 49.3949C100.02 49.1449 100.266 48.9508 100.577 48.8125C100.887 48.6723 101.238 48.6023 101.628 48.6023C102.022 48.6023 102.369 48.6714 102.67 48.8097C102.973 48.9479 103.212 49.1383 103.386 49.3807C103.561 49.6212 103.652 49.8977 103.659 50.2102H102.812ZM104.788 54.5V48.6818H108.435V49.4375H105.665V51.2102H108.245V51.9631H105.665V53.7443H108.469V54.5H104.788ZM109.608 48.6818H110.673L112.526 53.2045H112.594L114.446 48.6818H115.511V54.5H114.676V50.2898H114.622L112.906 54.4915H112.213L110.497 50.2869H110.443V54.5H109.608V48.6818ZM116.788 54.5V48.6818H120.435V49.4375H117.665V51.2102H120.245V51.9631H117.665V53.7443H120.469V54.5H116.788ZM126.304 48.6818V54.5H125.497L122.54 50.233H122.486V54.5H121.608V48.6818H122.42L125.381 52.9545H125.435V48.6818H126.304ZM127.298 49.4375V48.6818H131.8V49.4375H129.985V54.5H129.11V49.4375H127.298ZM136.796 54.5H134.913V48.6818H136.856C137.426 48.6818 137.915 48.7983 138.325 49.0312C138.734 49.2623 139.047 49.5947 139.265 50.0284C139.485 50.4602 139.594 50.9782 139.594 51.5824C139.594 52.1884 139.484 52.7093 139.262 53.1449C139.042 53.5805 138.724 53.9157 138.308 54.1506C137.891 54.3835 137.387 54.5 136.796 54.5ZM135.79 53.733H136.748C137.191 53.733 137.559 53.6496 137.853 53.483C138.147 53.3144 138.366 53.071 138.512 52.7528C138.658 52.4328 138.731 52.0426 138.731 51.5824C138.731 51.1259 138.658 50.7386 138.512 50.4205C138.368 50.1023 138.153 49.8608 137.867 49.696C137.581 49.5312 137.226 49.4489 136.802 49.4489H135.79V53.733ZM140.686 54.5V48.6818H144.334V49.4375H141.564V51.2102H144.143V51.9631H141.564V53.7443H144.368V54.5H140.686ZM150.797 50.2102C150.767 49.9413 150.642 49.733 150.422 49.5852C150.202 49.4356 149.926 49.3608 149.592 49.3608C149.354 49.3608 149.147 49.3987 148.973 49.4744C148.799 49.5483 148.663 49.6506 148.567 49.7812C148.472 49.91 148.425 50.0568 148.425 50.2216C148.425 50.3598 148.457 50.4792 148.521 50.5795C148.588 50.6799 148.674 50.7642 148.78 50.8324C148.888 50.8987 149.003 50.9545 149.126 51C149.25 51.0436 149.368 51.0795 149.482 51.108L150.05 51.2557C150.235 51.3011 150.426 51.3627 150.621 51.4403C150.816 51.518 150.997 51.6203 151.163 51.7472C151.33 51.8741 151.464 52.0312 151.567 52.2188C151.671 52.4062 151.723 52.6307 151.723 52.892C151.723 53.2216 151.638 53.5142 151.467 53.7699C151.299 54.0256 151.054 54.2273 150.732 54.375C150.411 54.5227 150.024 54.5966 149.57 54.5966C149.134 54.5966 148.757 54.5275 148.439 54.3892C148.121 54.2509 147.872 54.0549 147.692 53.8011C147.512 53.5455 147.412 53.2424 147.393 52.892H148.274C148.291 53.1023 148.359 53.2775 148.479 53.4176C148.6 53.5559 148.754 53.6591 148.942 53.7273C149.131 53.7936 149.339 53.8267 149.564 53.8267C149.812 53.8267 150.033 53.7879 150.226 53.7102C150.421 53.6307 150.574 53.5208 150.686 53.3807C150.798 53.2386 150.854 53.0729 150.854 52.8835C150.854 52.7112 150.804 52.5701 150.706 52.4602C150.609 52.3504 150.478 52.2595 150.311 52.1875C150.146 52.1155 149.96 52.0521 149.751 51.9972L149.064 51.8097C148.598 51.6828 148.229 51.4962 147.956 51.25C147.685 51.0038 147.55 50.678 147.55 50.2727C147.55 49.9375 147.641 49.6449 147.822 49.3949C148.004 49.1449 148.25 48.9508 148.561 48.8125C148.872 48.6723 149.222 48.6023 149.612 48.6023C150.006 48.6023 150.354 48.6714 150.655 48.8097C150.958 48.9479 151.196 49.1383 151.371 49.3807C151.545 49.6212 151.636 49.8977 151.643 50.2102H150.797ZM153.217 54.5H152.285L154.379 48.6818H155.393L157.487 54.5H156.555L154.91 49.7386H154.864L153.217 54.5ZM153.373 52.2216H156.396V52.9602H153.373V52.2216ZM163.023 48.6818V54.5H162.216L159.259 50.233H159.205V54.5H158.327V48.6818H159.139L162.099 52.9545H162.153V48.6818H163.023ZM164.016 49.4375V48.6818H168.519V49.4375H166.704V54.5H165.829V49.4375H164.016ZM169.514 54.5V48.6818H173.162V49.4375H170.392V51.2102H172.972V51.9631H170.392V53.7443H173.196V54.5H169.514ZM170.986 48.0994L171.651 46.7898H172.545L171.665 48.0994H170.986Z" fill="#00BC08"/>
</svg>
