<svg width="30" height="30" viewBox="0 0 30 30" fill="none" xmlns="http://www.w3.org/2000/svg">
<path d="M27.0371 18.4375C27.0371 19.55 26.7371 20.6 26.1871 21.5C25.1621 23.2125 23.2746 24.375 21.0996 24.375C19.9246 24.375 18.8246 24.025 17.8996 23.4125C17.1246 22.9375 16.4871 22.275 16.0246 21.5C15.4746 20.6 15.1621 19.55 15.1621 18.4375C15.1621 15.1625 17.8246 12.5 21.0996 12.5C21.5496 12.5 21.9871 12.55 22.3996 12.65C25.0621 13.2375 27.0371 15.6125 27.0371 18.4375Z" stroke="#222222" stroke-width="1.875" stroke-miterlimit="10" stroke-linecap="round" stroke-linejoin="round"/>
<path d="M18.7881 18.4375L20.2506 19.9L23.413 16.975" stroke="#222222" stroke-width="1.875" stroke-linecap="round" stroke-linejoin="round"/>
<path d="M25.8627 5.02499V7.79999C25.8627 8.81249 25.2252 10.075 24.6002 10.7125L22.4002 12.65C21.9877 12.55 21.5502 12.5 21.1002 12.5C17.8252 12.5 15.1627 15.1625 15.1627 18.4375C15.1627 19.55 15.4752 20.6 16.0252 21.5C16.4877 22.275 17.1252 22.9375 17.9002 23.4125V23.8375C17.9002 24.6 17.4002 25.6125 16.7627 25.9875L15.0002 27.125C13.3627 28.1375 11.0877 27 11.0877 24.975V18.2875C11.0877 17.4 10.5752 16.2625 10.0752 15.6375L5.27516 10.5875C4.65016 9.95 4.1377 8.81252 4.1377 8.06252V5.14999C4.1377 3.63749 5.27522 2.5 6.66272 2.5H23.3377C24.7252 2.5 25.8627 3.63749 25.8627 5.02499Z" stroke="#222222" stroke-width="1.875" stroke-miterlimit="10" stroke-linecap="round" stroke-linejoin="round"/>
</svg>
