<svg width="30" height="30" viewBox="0 0 30 30" fill="none" xmlns="http://www.w3.org/2000/svg">
<path d="M17.9002 23.8375C17.9002 24.6 17.4002 25.6 16.7627 25.9875L15.0002 27.125C13.3627 28.1375 11.0877 27 11.0877 24.975V18.2875C11.0877 17.4 10.5877 16.2625 10.0752 15.6375L5.27516 10.5875C4.63766 9.95 4.1377 8.82502 4.1377 8.06252V5.16251C4.1377 3.65001 5.27522 2.51251 6.66272 2.51251H23.3377C24.7252 2.51251 25.8627 3.65 25.8627 5.0375V7.8125C25.8627 8.825 25.2252 10.0875 24.6002 10.7125" stroke="#222222" stroke-width="1.875" stroke-miterlimit="10" stroke-linecap="round" stroke-linejoin="round"/>
<path d="M20.0874 20.65C22.2966 20.65 24.0874 18.8591 24.0874 16.65C24.0874 14.4408 22.2966 12.65 20.0874 12.65C17.8783 12.65 16.0874 14.4408 16.0874 16.65C16.0874 18.8591 17.8783 20.65 20.0874 20.65Z" stroke="#222222" stroke-width="1.875" stroke-linecap="round" stroke-linejoin="round"/>
<path d="M24.8374 21.4L23.5874 20.15" stroke="#222222" stroke-width="1.875" stroke-linecap="round" stroke-linejoin="round"/>
</svg>
