<svg width="32" height="33" viewBox="0 0 32 33" fill="none" xmlns="http://www.w3.org/2000/svg">
<path d="M28.8934 19.5667L28.36 26.2333C28.16 28.2733 28 29.8333 24.3867 29.8333H7.61337C4.00003 29.8333 3.84003 28.2733 3.64003 26.2333L3.1067 19.5667C3.00003 18.46 3.3467 17.4333 3.97337 16.6467C3.9867 16.6333 3.9867 16.6333 4.00003 16.62C4.73337 15.7267 5.84003 15.1667 7.08003 15.1667H24.92C26.16 15.1667 27.2534 15.7267 27.9734 16.5933C27.9867 16.6067 28 16.62 28 16.6333C28.6534 17.42 29.0134 18.4467 28.8934 19.5667Z" stroke="#232627" stroke-width="1.5" stroke-miterlimit="10"/>
<path d="M4.66669 15.74V8.87333C4.66669 4.34 5.80002 3.20667 10.3334 3.20667H12.0267C13.72 3.20667 14.1067 3.71333 14.7467 4.56666L16.44 6.83333C16.8667 7.39333 17.12 7.74 18.2534 7.74H21.6534C26.1867 7.74 27.32 8.87333 27.32 13.4067V15.7933" stroke="#232627" stroke-width="1.5" stroke-miterlimit="10" stroke-linecap="round" stroke-linejoin="round"/>
<path d="M12.5734 23.1667H19.4267" stroke="#222222" stroke-width="1.5" stroke-miterlimit="10" stroke-linecap="round" stroke-linejoin="round"/>
</svg>
