<svg width="25" height="24" viewBox="0 0 25 24" fill="none" xmlns="http://www.w3.org/2000/svg">
<path d="M21.125 5.97998C17.795 5.64998 14.445 5.47998 11.105 5.47998C9.125 5.47998 7.145 5.57998 5.165 5.77998L3.125 5.97998" stroke="#65656A" stroke-width="1.5" stroke-linecap="round" stroke-linejoin="round"/>
<path d="M8.625 4.97L8.845 3.66C9.005 2.71 9.125 2 10.815 2H13.435C15.125 2 15.255 2.75 15.405 3.67L15.625 4.97" stroke="#65656A" stroke-width="1.5" stroke-linecap="round" stroke-linejoin="round"/>
<path d="M18.975 9.14001L18.325 19.21C18.215 20.78 18.125 22 15.335 22H8.91502C6.12502 22 6.03502 20.78 5.92502 19.21L5.27502 9.14001" stroke="#65656A" stroke-width="1.5" stroke-linecap="round" stroke-linejoin="round"/>
<path d="M10.455 16.5H13.785" stroke="#65656A" stroke-width="1.5" stroke-linecap="round" stroke-linejoin="round"/>
<path d="M9.625 12.5H14.625" stroke="#65656A" stroke-width="1.5" stroke-linecap="round" stroke-linejoin="round"/>
</svg>
